<svg width="439" height="192" viewBox="0 0 439 192" fill="none" xmlns="http://www.w3.org/2000/svg">
<path d="M79.82 53.98V118.1C79.82 120.34 80.0067 122.067 80.38 123.28C80.7533 124.4 81.5 125.147 82.62 125.52C83.8333 125.893 85.56 126.08 87.8 126.08H92.56C99.84 126.08 106.14 124.12 111.46 120.2C116.78 116.28 120.327 111.053 122.1 104.52C122.193 104.24 122.473 104.147 122.94 104.24C123.407 104.333 123.64 104.52 123.64 104.8C123.36 107.88 123.08 111.613 122.8 116C122.52 120.293 122.38 124.26 122.38 127.9C122.38 129.3 121.68 130 120.28 130H54.2C54.0133 130 53.92 129.72 53.92 129.16C53.92 128.6 54.0133 128.32 54.2 128.32C57.0933 128.32 59.24 128.087 60.64 127.62C62.04 127.153 62.9733 126.22 63.44 124.82C64 123.42 64.28 121.367 64.28 118.66V53.84C64.28 51.1333 64 49.1267 63.44 47.82C62.9733 46.42 62.04 45.4867 60.64 45.02C59.24 44.46 57.0933 44.18 54.2 44.18C54.0133 44.18 53.92 43.9 53.92 43.34C53.92 42.78 54.0133 42.5 54.2 42.5C56.44 42.5 59.1 42.5933 62.18 42.78C65.3533 42.8733 68.62 42.92 71.98 42.92C75.5267 42.92 78.7933 42.8733 81.78 42.78C84.7667 42.5933 87.4267 42.5 89.76 42.5C90.04 42.5 90.18 42.78 90.18 43.34C90.18 43.9 90.04 44.18 89.76 44.18C86.96 44.18 84.8133 44.46 83.32 45.02C81.92 45.4867 80.9867 46.42 80.52 47.82C80.0533 49.22 79.82 51.2733 79.82 53.98ZM180.329 131.68C173.609 131.68 167.496 130.513 161.989 128.18C156.576 125.753 151.909 122.44 147.989 118.24C144.162 114.04 141.176 109.233 139.029 103.82C136.976 98.3133 135.949 92.48 135.949 86.32C135.949 78.76 137.396 72.1333 140.289 66.44C143.276 60.7467 147.196 56.0333 152.049 52.3C156.902 48.4733 162.222 45.6267 168.009 43.76C173.796 41.8933 179.536 40.96 185.229 40.96C192.136 40.96 198.296 42.22 203.709 44.74C209.216 47.1667 213.882 50.48 217.709 54.68C221.536 58.88 224.429 63.64 226.389 68.96C228.442 74.28 229.469 79.74 229.469 85.34C229.469 91.8733 228.162 97.94 225.549 103.54C222.936 109.14 219.342 114.04 214.769 118.24C210.289 122.44 205.062 125.753 199.089 128.18C193.209 130.513 186.956 131.68 180.329 131.68ZM184.949 128.18C190.176 128.18 194.842 126.687 198.949 123.7C203.056 120.713 206.276 116.327 208.609 110.54C211.036 104.753 212.249 97.7067 212.249 89.4C212.249 80.8133 210.942 73.16 208.329 66.44C205.716 59.72 201.982 54.4467 197.129 50.62C192.276 46.7 186.442 44.74 179.629 44.74C171.136 44.74 164.602 47.96 160.029 54.4C155.456 60.84 153.169 69.7533 153.169 81.14C153.169 87.9533 153.962 94.2533 155.549 100.04C157.136 105.733 159.329 110.727 162.129 115.02C165.022 119.22 168.382 122.487 172.209 124.82C176.129 127.06 180.376 128.18 184.949 128.18ZM298.857 40.96C301.657 40.96 304.55 41.1 307.537 41.38C310.617 41.66 313.51 42.08 316.217 42.64C318.923 43.2 321.21 43.9 323.077 44.74C323.917 45.02 324.43 45.3933 324.617 45.86C324.897 46.2333 325.083 46.9333 325.177 47.96L326.997 67.42C326.997 67.7 326.763 67.8867 326.297 67.98C325.83 68.0733 325.503 67.9333 325.317 67.56C322.703 60 318.97 54.1667 314.117 50.06C309.357 45.9533 303.523 43.9 296.617 43.9C290.27 43.9 284.577 45.6267 279.537 49.08C274.59 52.44 270.67 57.2467 267.777 63.5C264.977 69.7533 263.577 77.22 263.577 85.9C263.577 92.4333 264.417 98.36 266.097 103.68C267.777 108.907 270.157 113.387 273.237 117.12C276.317 120.853 279.957 123.747 284.157 125.8C288.357 127.76 292.977 128.74 298.017 128.74C304.643 128.74 310.103 126.967 314.397 123.42C318.783 119.78 322.89 114.04 326.717 106.2C326.903 105.92 327.183 105.827 327.557 105.92C328.023 106.013 328.257 106.2 328.257 106.48L326.157 123.84C326.063 124.96 325.877 125.707 325.597 126.08C325.41 126.36 324.897 126.687 324.057 127.06C319.577 128.647 315.097 129.813 310.617 130.56C306.23 131.307 302.03 131.68 298.017 131.68C287.937 131.68 278.977 129.813 271.137 126.08C263.297 122.253 257.137 116.98 252.657 110.26C248.177 103.447 245.937 95.6533 245.937 86.88C245.937 80.16 247.243 74 249.857 68.4C252.563 62.7067 256.297 57.8533 261.057 53.84C265.91 49.7333 271.557 46.56 277.997 44.32C284.437 42.08 291.39 40.96 298.857 40.96ZM368.95 118.66C368.95 121.367 369.183 123.42 369.65 124.82C370.116 126.22 371.05 127.153 372.45 127.62C373.85 128.087 375.996 128.32 378.89 128.32C379.17 128.32 379.31 128.6 379.31 129.16C379.31 129.72 379.17 130 378.89 130C376.463 130 373.756 129.953 370.77 129.86C367.783 129.767 364.516 129.72 360.97 129.72C357.61 129.72 354.39 129.767 351.31 129.86C348.23 129.953 345.476 130 343.05 130C342.863 130 342.77 129.72 342.77 129.16C342.77 128.6 342.863 128.32 343.05 128.32C345.943 128.32 348.09 128.087 349.49 127.62C350.983 127.153 351.963 126.22 352.43 124.82C352.99 123.42 353.27 121.367 353.27 118.66V53.84C353.27 51.1333 352.99 49.1267 352.43 47.82C351.963 46.42 350.983 45.4867 349.49 45.02C348.09 44.46 345.943 44.18 343.05 44.18C342.863 44.18 342.77 43.9 342.77 43.34C342.77 42.78 342.863 42.5 343.05 42.5C345.476 42.5 348.23 42.5933 351.31 42.78C354.39 42.8733 357.61 42.92 360.97 42.92C364.516 42.92 367.783 42.8733 370.77 42.78C373.85 42.5933 376.556 42.5 378.89 42.5C379.17 42.5 379.31 42.78 379.31 43.34C379.31 43.9 379.17 44.18 378.89 44.18C376.09 44.18 373.943 44.46 372.45 45.02C371.05 45.58 370.116 46.56 369.65 47.96C369.183 49.36 368.95 51.4133 368.95 54.12V118.66Z" fill="currentColor"/>
<path d="M11.52 181.432C9.384 181.432 7.644 181.084 6.3 180.388C4.956 179.668 3.948 178.732 3.276 177.58C2.604 176.428 2.184 175.168 2.016 173.8C1.872 172.432 1.92 171.076 2.16 169.732C2.496 167.884 3.096 166.24 3.96 164.8C4.848 163.36 5.916 162.148 7.164 161.164C8.412 160.156 9.768 159.4 11.232 158.896C12.696 158.368 14.184 158.104 15.696 158.104C16.68 158.104 17.676 158.212 18.684 158.428C19.716 158.62 20.508 158.86 21.06 159.148C21.228 159.244 21.324 159.34 21.348 159.436C21.372 159.532 21.372 159.712 21.348 159.976L20.772 164.8C20.772 164.872 20.712 164.908 20.592 164.908C20.472 164.908 20.4 164.872 20.376 164.8C19.968 163.024 19.224 161.632 18.144 160.624C17.088 159.592 15.78 159.076 14.22 159.076C12.852 159.076 11.604 159.46 10.476 160.228C9.372 160.972 8.448 162.052 7.704 163.468C6.984 164.86 6.48 166.552 6.192 168.544C5.952 170.176 5.904 171.724 6.048 173.188C6.192 174.652 6.504 175.948 6.984 177.076C7.464 178.204 8.1 179.092 8.892 179.74C9.708 180.388 10.656 180.712 11.736 180.712C12.936 180.712 14.16 180.268 15.408 179.38C16.656 178.492 17.976 177.112 19.368 175.24C19.44 175.144 19.524 175.132 19.62 175.204C19.74 175.252 19.788 175.3 19.764 175.348L18.792 179.488C18.72 179.776 18.648 179.98 18.576 180.1C18.504 180.196 18.36 180.268 18.144 180.316C16.944 180.724 15.768 181.012 14.616 181.18C13.488 181.348 12.456 181.432 11.52 181.432ZM41.6481 162.964C41.8641 161.692 41.7681 160.708 41.3601 160.012C40.9521 159.292 40.2921 158.932 39.3801 158.932C39.3081 158.932 39.2841 158.86 39.3081 158.716C39.3321 158.572 39.3561 158.5 39.3801 158.5C39.9321 158.5 40.4841 158.524 41.0361 158.572C41.6121 158.596 42.2361 158.608 42.9081 158.608C43.5081 158.608 44.0841 158.596 44.6361 158.572C45.2121 158.524 45.7161 158.5 46.1481 158.5C46.2441 158.5 46.2801 158.572 46.2561 158.716C46.2321 158.86 46.1961 158.932 46.1481 158.932C45.2841 158.932 44.5401 159.328 43.9161 160.12C43.3161 160.912 42.9081 161.944 42.6921 163.216L40.7841 174.088C40.5201 175.624 39.9441 176.944 39.0561 178.048C38.1921 179.152 37.1121 180.004 35.8161 180.604C34.5201 181.204 33.0801 181.504 31.4961 181.504C29.8881 181.504 28.5081 181.192 27.3561 180.568C26.2281 179.944 25.4121 179.056 24.9081 177.904C24.4041 176.728 24.2841 175.348 24.5481 173.764L26.7801 161.308C26.9721 160.252 26.9481 159.592 26.7081 159.328C26.4681 159.064 25.8801 158.932 24.9441 158.932C24.8481 158.932 24.8121 158.86 24.8361 158.716C24.8601 158.572 24.8841 158.5 24.9081 158.5C25.4841 158.5 26.1201 158.524 26.8161 158.572C27.5121 158.596 28.2321 158.608 28.9761 158.608C29.8161 158.608 30.5841 158.596 31.2801 158.572C32.0001 158.524 32.6241 158.5 33.1521 158.5C33.2001 158.5 33.2241 158.572 33.2241 158.716C33.2241 158.86 33.2001 158.932 33.1521 158.932C32.4801 158.932 31.9521 159.016 31.5681 159.184C31.2081 159.352 30.9321 159.628 30.7401 160.012C30.5721 160.396 30.4281 160.936 30.3081 161.632L28.3281 172.756C27.8721 175.372 28.0641 177.268 28.9041 178.444C29.7441 179.596 31.0401 180.172 32.7921 180.172C34.6401 180.172 36.1761 179.62 37.4001 178.516C38.6241 177.388 39.3921 175.84 39.7041 173.872L41.6481 162.964ZM44.8923 181C44.7963 181 44.7483 180.928 44.7483 180.784C44.7483 180.64 44.7963 180.568 44.8923 180.568C45.5883 180.568 46.1283 180.508 46.5123 180.388C46.8963 180.244 47.1843 179.992 47.3763 179.632C47.5683 179.272 47.7243 178.756 47.8443 178.084L50.7603 161.416C50.9043 160.72 50.9523 160.204 50.9043 159.868C50.8563 159.508 50.6763 159.268 50.3643 159.148C50.0523 159.004 49.5603 158.932 48.8883 158.932C48.7923 158.932 48.7443 158.86 48.7443 158.716C48.7443 158.572 48.7923 158.5 48.8883 158.5C49.4403 158.5 50.0643 158.524 50.7603 158.572C51.4803 158.596 52.2243 158.608 52.9923 158.608C53.5443 158.608 54.2043 158.572 54.9723 158.5C55.7403 158.428 56.3643 158.392 56.8443 158.392C59.2683 158.392 60.9723 158.812 61.9563 159.652C62.9403 160.492 63.2883 161.716 63.0003 163.324C62.7603 164.716 62.1483 165.916 61.1643 166.924C60.2043 167.932 59.0163 168.712 57.6003 169.264C56.2083 169.792 54.7443 170.056 53.2083 170.056C53.1123 170.056 52.9563 170.056 52.7403 170.056C52.5483 170.032 52.4283 170.008 52.3803 169.984L52.5963 168.868C52.7403 168.94 52.9563 169 53.2443 169.048C53.5323 169.072 53.7603 169.084 53.9283 169.084C55.4883 169.084 56.6883 168.7 57.5283 167.932C58.3683 167.164 58.9203 165.892 59.1843 164.116C59.4003 162.892 59.4003 161.92 59.1843 161.2C58.9923 160.456 58.6563 159.928 58.1763 159.616C57.6963 159.304 57.1443 159.148 56.5203 159.148C55.9923 159.148 55.5963 159.184 55.3323 159.256C55.0683 159.328 54.8643 159.532 54.7203 159.868C54.6003 160.18 54.4683 160.72 54.3243 161.488L51.3723 178.084C51.2523 178.756 51.2163 179.272 51.2643 179.632C51.3123 179.992 51.4803 180.244 51.7683 180.388C52.0803 180.508 52.5603 180.568 53.2083 180.568C53.3043 180.568 53.3523 180.64 53.3523 180.784C53.3523 180.928 53.3163 181 53.2443 181C52.6683 181 52.0323 180.988 51.3363 180.964C50.6643 180.94 49.9203 180.928 49.1043 180.928C48.3123 180.928 47.5443 180.94 46.8003 180.964C46.0803 180.988 45.4443 181 44.8923 181ZM60.7683 181C60.4563 181 60.0243 180.616 59.4723 179.848C58.9203 179.08 58.2723 177.844 57.5283 176.14C56.8083 174.436 56.0283 172.192 55.1883 169.408L58.1043 168.436C59.2803 171.46 60.3123 173.86 61.2003 175.636C62.1123 177.388 62.9643 178.648 63.7563 179.416C64.5723 180.184 65.3883 180.568 66.2043 180.568C66.2763 180.568 66.3123 180.64 66.3123 180.784C66.3123 180.928 66.2763 181 66.2043 181C64.7403 181 63.5763 181 62.7123 181C61.8483 181 61.2003 181 60.7683 181ZM66.1958 181C66.0998 181 66.0518 180.928 66.0518 180.784C66.0518 180.64 66.0998 180.568 66.1958 180.568C66.8198 180.568 67.5878 180.208 68.4998 179.488C69.4118 178.768 70.2878 177.64 71.1278 176.104L81.1718 158.176C81.2198 158.08 81.3278 158.044 81.4958 158.068C81.6878 158.092 81.7958 158.14 81.8198 158.212L85.7438 177.976C85.8638 178.624 85.9838 179.14 86.1038 179.524C86.2238 179.908 86.4278 180.184 86.7158 180.352C87.0038 180.496 87.4478 180.568 88.0478 180.568C88.1438 180.568 88.1918 180.64 88.1918 180.784C88.1918 180.928 88.1438 181 88.0478 181C87.4238 181 86.7878 180.976 86.1398 180.928C85.5158 180.88 84.8198 180.856 84.0518 180.856C83.3078 180.856 82.6358 180.88 82.0358 180.928C81.4598 180.976 80.8598 181 80.2358 181C80.1398 181 80.0918 180.928 80.0918 180.784C80.0918 180.64 80.1398 180.568 80.2358 180.568C81.1478 180.568 81.7358 180.388 81.9998 180.028C82.2878 179.668 82.3238 178.984 82.1078 177.976L79.0478 162.82L81.0638 160.048L72.0998 176.356C71.5478 177.34 71.2358 178.144 71.1638 178.768C71.1158 179.392 71.3198 179.848 71.7758 180.136C72.2318 180.424 72.9518 180.568 73.9358 180.568C74.0318 180.568 74.0798 180.64 74.0798 180.784C74.0798 180.928 74.0198 181 73.8998 181C73.3478 181 72.6638 180.976 71.8478 180.928C71.0558 180.88 70.2758 180.856 69.5078 180.856C68.8118 180.856 68.2358 180.88 67.7798 180.928C67.3478 180.976 66.8198 181 66.1958 181ZM73.5758 172.756L74.1158 171.748H81.9998L82.0718 172.756H73.5758ZM91.1135 181C91.0655 181 91.0415 180.928 91.0415 180.784C91.0415 180.64 91.0655 180.568 91.1135 180.568C91.9775 180.568 92.6375 180.508 93.0935 180.388C93.5495 180.268 93.8855 180.028 94.1015 179.668C94.3415 179.308 94.5215 178.78 94.6415 178.084L97.5575 161.416C97.7255 160.576 97.7255 160.024 97.5575 159.76C97.4135 159.472 97.0415 159.328 96.4415 159.328H96.0095C95.2415 159.328 94.4495 159.592 93.6335 160.12C92.8415 160.624 92.1215 161.296 91.4735 162.136C90.8495 162.976 90.3815 163.912 90.0695 164.944C90.0455 165.016 89.9615 165.04 89.8175 165.016C89.6975 164.992 89.6495 164.944 89.6735 164.872C89.7695 164.536 89.8895 164.068 90.0335 163.468C90.2015 162.844 90.3695 162.172 90.5375 161.452C90.7055 160.732 90.8615 160.036 91.0055 159.364C91.1735 158.692 91.2935 158.14 91.3655 157.708C91.4135 157.636 91.4975 157.612 91.6175 157.636C91.7615 157.636 91.8215 157.672 91.7975 157.744C91.7495 158.104 91.9055 158.32 92.2655 158.392C92.6255 158.464 92.9375 158.5 93.2015 158.5C94.0895 158.524 95.1215 158.548 96.2975 158.572C97.4975 158.596 98.6615 158.608 99.7895 158.608C101.229 158.608 102.441 158.596 103.425 158.572C104.409 158.524 105.309 158.5 106.125 158.5C106.797 158.5 107.313 158.452 107.673 158.356C108.057 158.236 108.333 157.984 108.501 157.6C108.549 157.528 108.633 157.504 108.753 157.528C108.873 157.528 108.921 157.576 108.897 157.672C108.801 158.056 108.669 158.584 108.501 159.256C108.333 159.928 108.165 160.636 107.997 161.38C107.853 162.124 107.721 162.82 107.601 163.468C107.481 164.092 107.397 164.56 107.349 164.872C107.325 164.968 107.241 165.016 107.097 165.016C106.953 164.992 106.893 164.932 106.917 164.836C107.109 163.828 107.061 162.916 106.773 162.1C106.509 161.26 106.077 160.588 105.477 160.084C104.877 159.58 104.145 159.328 103.281 159.328H102.885C102.237 159.328 101.817 159.484 101.625 159.796C101.433 160.084 101.265 160.648 101.121 161.488L98.2055 178.084C98.0855 178.78 98.0615 179.308 98.1335 179.668C98.2055 180.028 98.4575 180.268 98.8895 180.388C99.3215 180.508 99.9815 180.568 100.869 180.568C100.917 180.568 100.941 180.64 100.941 180.784C100.941 180.928 100.917 181 100.869 181C100.197 181 99.4535 180.988 98.6375 180.964C97.8455 180.94 96.9575 180.928 95.9735 180.928C95.0855 180.928 94.2215 180.94 93.3815 180.964C92.5415 180.988 91.7855 181 91.1135 181ZM108.024 181C107.952 181 107.916 180.928 107.916 180.784C107.916 180.64 107.952 180.568 108.024 180.568C108.672 180.568 109.164 180.508 109.5 180.388C109.836 180.268 110.088 180.028 110.256 179.668C110.424 179.308 110.568 178.78 110.688 178.084L113.604 161.416C113.796 160.384 113.772 159.712 113.532 159.4C113.316 159.088 112.752 158.932 111.84 158.932C111.792 158.932 111.768 158.86 111.768 158.716C111.768 158.572 111.792 158.5 111.84 158.5H125.988C126.18 158.5 126.252 158.608 126.204 158.824C126.132 159.28 126.048 159.82 125.952 160.444C125.856 161.068 125.76 161.668 125.664 162.244C125.592 162.82 125.52 163.288 125.448 163.648C125.424 163.744 125.34 163.78 125.196 163.756C125.076 163.708 125.016 163.66 125.016 163.612C124.92 162.268 124.452 161.212 123.612 160.444C122.772 159.652 121.692 159.256 120.372 159.256H119.724C119.052 159.256 118.548 159.316 118.212 159.436C117.9 159.532 117.672 159.736 117.528 160.048C117.408 160.36 117.288 160.828 117.168 161.452L114.252 177.94C114.084 178.9 114.108 179.524 114.324 179.812C114.54 180.1 115.092 180.244 115.98 180.244H116.916C118.332 180.244 119.7 179.8 121.02 178.912C122.364 178 123.48 176.788 124.368 175.276C124.416 175.204 124.5 175.192 124.62 175.24C124.764 175.264 124.812 175.3 124.764 175.348C124.548 176.044 124.332 176.872 124.116 177.832C123.9 178.768 123.708 179.644 123.54 180.46C123.468 180.82 123.276 181 122.964 181H108.024ZM122.928 173.008C122.904 173.104 122.82 173.152 122.676 173.152C122.532 173.128 122.472 173.068 122.496 172.972C122.688 171.916 122.52 171.124 121.992 170.596C121.488 170.068 120.72 169.804 119.688 169.804H114.036L114.18 168.796H119.94C121.02 168.796 121.86 168.592 122.46 168.184C123.06 167.752 123.468 167.044 123.684 166.06C123.708 165.94 123.792 165.892 123.936 165.916C124.08 165.916 124.14 165.976 124.116 166.096C123.996 166.864 123.888 167.476 123.792 167.932C123.696 168.364 123.6 168.82 123.504 169.3C123.408 169.9 123.312 170.5 123.216 171.1C123.144 171.676 123.048 172.312 122.928 173.008ZM146.782 171.46L146.17 170.848L151.786 162.064C152.338 161.224 152.506 160.492 152.29 159.868C152.098 159.244 151.57 158.932 150.706 158.932C150.61 158.932 150.562 158.86 150.562 158.716C150.562 158.572 150.61 158.5 150.706 158.5C151.258 158.5 151.906 158.524 152.65 158.572C153.418 158.596 154.186 158.608 154.954 158.608C155.458 158.608 155.866 158.596 156.178 158.572C156.514 158.524 156.91 158.5 157.366 158.5C157.438 158.5 157.474 158.572 157.474 158.716C157.474 158.86 157.438 158.932 157.366 158.932C156.622 158.932 155.842 159.256 155.026 159.904C154.234 160.528 153.382 161.512 152.47 162.856L146.782 171.46ZM139.798 181C139.702 181 139.654 180.928 139.654 180.784C139.654 180.64 139.702 180.568 139.798 180.568C140.566 180.568 141.154 180.508 141.562 180.388C141.97 180.268 142.27 180.028 142.462 179.668C142.654 179.308 142.81 178.78 142.93 178.084L144.334 169.84L147.97 169.516L146.458 178.084C146.266 179.116 146.29 179.788 146.53 180.1C146.794 180.412 147.502 180.568 148.654 180.568C148.726 180.568 148.762 180.64 148.762 180.784C148.762 180.928 148.726 181 148.654 181C148.054 181 147.382 180.988 146.638 180.964C145.918 180.94 145.126 180.928 144.262 180.928C143.374 180.928 142.558 180.94 141.814 180.964C141.07 180.988 140.398 181 139.798 181ZM144.73 171.244L140.59 161.488C140.206 160.6 139.81 159.952 139.402 159.544C139.018 159.136 138.586 158.932 138.106 158.932C138.01 158.932 137.962 158.86 137.962 158.716C137.962 158.572 138.01 158.5 138.106 158.5C138.634 158.5 139.21 158.524 139.834 158.572C140.458 158.596 141.046 158.608 141.598 158.608C142.294 158.608 143.038 158.596 143.83 158.572C144.646 158.524 145.282 158.5 145.738 158.5C145.834 158.5 145.882 158.572 145.882 158.716C145.882 158.86 145.834 158.932 145.738 158.932C144.922 158.932 144.394 159.04 144.154 159.256C143.914 159.448 143.902 159.82 144.118 160.372L147.97 169.588L144.73 171.244ZM164.273 181.432C162.257 181.432 160.589 180.916 159.269 179.884C157.949 178.828 157.025 177.412 156.497 175.636C155.993 173.86 155.933 171.892 156.317 169.732C156.605 168.052 157.133 166.504 157.901 165.088C158.669 163.672 159.617 162.448 160.745 161.416C161.897 160.36 163.169 159.544 164.561 158.968C165.953 158.392 167.417 158.104 168.953 158.104C171.017 158.104 172.721 158.62 174.065 159.652C175.409 160.684 176.345 162.076 176.873 163.828C177.425 165.58 177.497 167.548 177.089 169.732C176.777 171.556 176.201 173.188 175.361 174.628C174.521 176.068 173.513 177.292 172.337 178.3C171.161 179.308 169.877 180.088 168.485 180.64C167.117 181.168 165.713 181.432 164.273 181.432ZM165.821 180.496C167.525 180.496 169.025 179.704 170.321 178.12C171.641 176.512 172.529 174.352 172.985 171.64C173.273 169.984 173.357 168.4 173.237 166.888C173.141 165.376 172.853 164.032 172.373 162.856C171.917 161.656 171.281 160.708 170.465 160.012C169.649 159.316 168.677 158.968 167.549 158.968C165.845 158.968 164.345 159.76 163.049 161.344C161.753 162.928 160.865 165.088 160.385 167.824C160.121 169.432 160.037 170.992 160.133 172.504C160.229 174.016 160.505 175.372 160.961 176.572C161.417 177.772 162.053 178.732 162.869 179.452C163.685 180.148 164.669 180.496 165.821 180.496ZM198.231 162.964C198.447 161.692 198.351 160.708 197.943 160.012C197.535 159.292 196.875 158.932 195.963 158.932C195.891 158.932 195.867 158.86 195.891 158.716C195.915 158.572 195.939 158.5 195.963 158.5C196.515 158.5 197.067 158.524 197.619 158.572C198.195 158.596 198.819 158.608 199.491 158.608C200.091 158.608 200.667 158.596 201.219 158.572C201.795 158.524 202.299 158.5 202.731 158.5C202.827 158.5 202.863 158.572 202.839 158.716C202.815 158.86 202.779 158.932 202.731 158.932C201.867 158.932 201.123 159.328 200.499 160.12C199.899 160.912 199.491 161.944 199.275 163.216L197.367 174.088C197.103 175.624 196.527 176.944 195.639 178.048C194.775 179.152 193.695 180.004 192.399 180.604C191.103 181.204 189.663 181.504 188.079 181.504C186.471 181.504 185.091 181.192 183.939 180.568C182.811 179.944 181.995 179.056 181.491 177.904C180.987 176.728 180.867 175.348 181.131 173.764L183.363 161.308C183.555 160.252 183.531 159.592 183.291 159.328C183.051 159.064 182.463 158.932 181.527 158.932C181.431 158.932 181.395 158.86 181.419 158.716C181.443 158.572 181.467 158.5 181.491 158.5C182.067 158.5 182.703 158.524 183.399 158.572C184.095 158.596 184.815 158.608 185.559 158.608C186.399 158.608 187.167 158.596 187.863 158.572C188.583 158.524 189.207 158.5 189.735 158.5C189.783 158.5 189.807 158.572 189.807 158.716C189.807 158.86 189.783 158.932 189.735 158.932C189.063 158.932 188.535 159.016 188.151 159.184C187.791 159.352 187.515 159.628 187.323 160.012C187.155 160.396 187.011 160.936 186.891 161.632L184.911 172.756C184.455 175.372 184.647 177.268 185.487 178.444C186.327 179.596 187.623 180.172 189.375 180.172C191.223 180.172 192.759 179.62 193.983 178.516C195.207 177.388 195.975 175.84 196.287 173.872L198.231 162.964ZM201.475 181C201.379 181 201.331 180.928 201.331 180.784C201.331 180.64 201.379 180.568 201.475 180.568C202.171 180.568 202.711 180.508 203.095 180.388C203.479 180.244 203.767 179.992 203.959 179.632C204.151 179.272 204.307 178.756 204.427 178.084L207.343 161.416C207.487 160.72 207.535 160.204 207.487 159.868C207.439 159.508 207.259 159.268 206.947 159.148C206.635 159.004 206.143 158.932 205.471 158.932C205.375 158.932 205.327 158.86 205.327 158.716C205.327 158.572 205.375 158.5 205.471 158.5C206.023 158.5 206.647 158.524 207.343 158.572C208.063 158.596 208.807 158.608 209.575 158.608C210.127 158.608 210.787 158.572 211.555 158.5C212.323 158.428 212.947 158.392 213.427 158.392C215.851 158.392 217.555 158.812 218.539 159.652C219.523 160.492 219.871 161.716 219.583 163.324C219.343 164.716 218.731 165.916 217.747 166.924C216.787 167.932 215.599 168.712 214.183 169.264C212.791 169.792 211.327 170.056 209.791 170.056C209.695 170.056 209.539 170.056 209.323 170.056C209.131 170.032 209.011 170.008 208.963 169.984L209.179 168.868C209.323 168.94 209.539 169 209.827 169.048C210.115 169.072 210.343 169.084 210.511 169.084C212.071 169.084 213.271 168.7 214.111 167.932C214.951 167.164 215.503 165.892 215.767 164.116C215.983 162.892 215.983 161.92 215.767 161.2C215.575 160.456 215.239 159.928 214.759 159.616C214.279 159.304 213.727 159.148 213.103 159.148C212.575 159.148 212.179 159.184 211.915 159.256C211.651 159.328 211.447 159.532 211.303 159.868C211.183 160.18 211.051 160.72 210.907 161.488L207.955 178.084C207.835 178.756 207.799 179.272 207.847 179.632C207.895 179.992 208.063 180.244 208.351 180.388C208.663 180.508 209.143 180.568 209.791 180.568C209.887 180.568 209.935 180.64 209.935 180.784C209.935 180.928 209.899 181 209.827 181C209.251 181 208.615 180.988 207.919 180.964C207.247 180.94 206.503 180.928 205.687 180.928C204.895 180.928 204.127 180.94 203.383 180.964C202.663 180.988 202.027 181 201.475 181ZM217.351 181C217.039 181 216.607 180.616 216.055 179.848C215.503 179.08 214.855 177.844 214.111 176.14C213.391 174.436 212.611 172.192 211.771 169.408L214.687 168.436C215.863 171.46 216.895 173.86 217.783 175.636C218.695 177.388 219.547 178.648 220.339 179.416C221.155 180.184 221.971 180.568 222.787 180.568C222.859 180.568 222.895 180.64 222.895 180.784C222.895 180.928 222.859 181 222.787 181C221.323 181 220.159 181 219.295 181C218.431 181 217.783 181 217.351 181ZM244.32 181.432C242.184 181.432 240.444 181.084 239.1 180.388C237.756 179.668 236.748 178.732 236.076 177.58C235.404 176.428 234.984 175.168 234.816 173.8C234.672 172.432 234.72 171.076 234.96 169.732C235.296 167.884 235.896 166.24 236.76 164.8C237.648 163.36 238.716 162.148 239.964 161.164C241.212 160.156 242.568 159.4 244.032 158.896C245.496 158.368 246.984 158.104 248.496 158.104C249.48 158.104 250.476 158.212 251.484 158.428C252.516 158.62 253.308 158.86 253.86 159.148C254.028 159.244 254.124 159.34 254.148 159.436C254.172 159.532 254.172 159.712 254.148 159.976L253.572 164.8C253.572 164.872 253.512 164.908 253.392 164.908C253.272 164.908 253.2 164.872 253.176 164.8C252.768 163.024 252.024 161.632 250.944 160.624C249.888 159.592 248.58 159.076 247.02 159.076C245.652 159.076 244.404 159.46 243.276 160.228C242.172 160.972 241.248 162.052 240.504 163.468C239.784 164.86 239.28 166.552 238.992 168.544C238.752 170.176 238.704 171.724 238.848 173.188C238.992 174.652 239.304 175.948 239.784 177.076C240.264 178.204 240.9 179.092 241.692 179.74C242.508 180.388 243.456 180.712 244.536 180.712C245.736 180.712 246.96 180.268 248.208 179.38C249.456 178.492 250.776 177.112 252.168 175.24C252.24 175.144 252.324 175.132 252.42 175.204C252.54 175.252 252.588 175.3 252.564 175.348L251.592 179.488C251.52 179.776 251.448 179.98 251.376 180.1C251.304 180.196 251.16 180.268 250.944 180.316C249.744 180.724 248.568 181.012 247.416 181.18C246.288 181.348 245.256 181.432 244.32 181.432ZM264.441 181.432C262.425 181.432 260.757 180.916 259.437 179.884C258.117 178.828 257.193 177.412 256.665 175.636C256.161 173.86 256.101 171.892 256.485 169.732C256.773 168.052 257.301 166.504 258.069 165.088C258.837 163.672 259.785 162.448 260.913 161.416C262.065 160.36 263.337 159.544 264.729 158.968C266.121 158.392 267.585 158.104 269.121 158.104C271.185 158.104 272.889 158.62 274.233 159.652C275.577 160.684 276.513 162.076 277.041 163.828C277.593 165.58 277.665 167.548 277.257 169.732C276.945 171.556 276.369 173.188 275.529 174.628C274.689 176.068 273.681 177.292 272.505 178.3C271.329 179.308 270.045 180.088 268.653 180.64C267.285 181.168 265.881 181.432 264.441 181.432ZM265.989 180.496C267.693 180.496 269.193 179.704 270.489 178.12C271.809 176.512 272.697 174.352 273.153 171.64C273.441 169.984 273.525 168.4 273.405 166.888C273.309 165.376 273.021 164.032 272.541 162.856C272.085 161.656 271.449 160.708 270.633 160.012C269.817 159.316 268.845 158.968 267.717 158.968C266.013 158.968 264.513 159.76 263.217 161.344C261.921 162.928 261.033 165.088 260.553 167.824C260.289 169.432 260.205 170.992 260.301 172.504C260.397 174.016 260.673 175.372 261.129 176.572C261.585 177.772 262.221 178.732 263.037 179.452C263.853 180.148 264.837 180.496 265.989 180.496ZM278.778 181C278.73 181 278.706 180.928 278.706 180.784C278.706 180.64 278.73 180.568 278.778 180.568C279.426 180.568 279.918 180.508 280.254 180.388C280.59 180.268 280.842 180.028 281.01 179.668C281.178 179.308 281.322 178.78 281.442 178.084L284.394 161.416C284.586 160.384 284.562 159.712 284.322 159.4C284.082 159.088 283.506 158.932 282.594 158.932C282.546 158.932 282.522 158.86 282.522 158.716C282.522 158.572 282.546 158.5 282.594 158.5C283.146 158.5 283.746 158.524 284.394 158.572C285.066 158.596 285.774 158.608 286.518 158.608C287.286 158.608 288.018 158.596 288.714 158.572C289.434 158.524 290.058 158.5 290.586 158.5C290.634 158.5 290.658 158.572 290.658 158.716C290.658 158.86 290.634 158.932 290.586 158.932C289.938 158.932 289.446 159.004 289.11 159.148C288.774 159.268 288.522 159.508 288.354 159.868C288.186 160.228 288.042 160.756 287.922 161.452L285.006 177.94C284.838 178.9 284.838 179.524 285.006 179.812C285.198 180.1 285.63 180.244 286.302 180.244H287.238C289.014 180.244 290.574 179.812 291.918 178.948C293.262 178.06 294.474 176.692 295.554 174.844C295.602 174.796 295.686 174.784 295.806 174.808C295.926 174.832 295.974 174.88 295.95 174.952C295.758 175.696 295.53 176.584 295.266 177.616C295.026 178.648 294.834 179.596 294.69 180.46C294.618 180.82 294.426 181 294.114 181H278.778ZM297.314 181C297.266 181 297.242 180.928 297.242 180.784C297.242 180.64 297.266 180.568 297.314 180.568C297.962 180.568 298.454 180.508 298.79 180.388C299.126 180.268 299.378 180.028 299.546 179.668C299.714 179.308 299.858 178.78 299.978 178.084L302.93 161.416C303.122 160.384 303.098 159.712 302.858 159.4C302.618 159.088 302.042 158.932 301.13 158.932C301.082 158.932 301.058 158.86 301.058 158.716C301.058 158.572 301.082 158.5 301.13 158.5C301.682 158.5 302.282 158.524 302.93 158.572C303.602 158.596 304.31 158.608 305.054 158.608C305.822 158.608 306.554 158.596 307.25 158.572C307.97 158.524 308.594 158.5 309.122 158.5C309.17 158.5 309.194 158.572 309.194 158.716C309.194 158.86 309.17 158.932 309.122 158.932C308.474 158.932 307.982 159.004 307.646 159.148C307.31 159.268 307.058 159.508 306.89 159.868C306.722 160.228 306.578 160.756 306.458 161.452L303.542 177.94C303.374 178.9 303.374 179.524 303.542 179.812C303.734 180.1 304.166 180.244 304.838 180.244H305.774C307.55 180.244 309.11 179.812 310.454 178.948C311.798 178.06 313.01 176.692 314.09 174.844C314.138 174.796 314.222 174.784 314.342 174.808C314.462 174.832 314.51 174.88 314.486 174.952C314.294 175.696 314.066 176.584 313.802 177.616C313.562 178.648 313.37 179.596 313.226 180.46C313.154 180.82 312.962 181 312.65 181H297.314ZM316.066 181C315.994 181 315.958 180.928 315.958 180.784C315.958 180.64 315.994 180.568 316.066 180.568C316.714 180.568 317.206 180.508 317.542 180.388C317.878 180.268 318.13 180.028 318.298 179.668C318.466 179.308 318.61 178.78 318.73 178.084L321.646 161.416C321.838 160.384 321.814 159.712 321.574 159.4C321.358 159.088 320.794 158.932 319.882 158.932C319.834 158.932 319.81 158.86 319.81 158.716C319.81 158.572 319.834 158.5 319.882 158.5H334.03C334.222 158.5 334.294 158.608 334.246 158.824C334.174 159.28 334.09 159.82 333.994 160.444C333.898 161.068 333.802 161.668 333.706 162.244C333.634 162.82 333.562 163.288 333.49 163.648C333.466 163.744 333.382 163.78 333.238 163.756C333.118 163.708 333.058 163.66 333.058 163.612C332.962 162.268 332.494 161.212 331.654 160.444C330.814 159.652 329.734 159.256 328.414 159.256H327.766C327.094 159.256 326.59 159.316 326.254 159.436C325.942 159.532 325.714 159.736 325.57 160.048C325.45 160.36 325.33 160.828 325.21 161.452L322.294 177.94C322.126 178.9 322.15 179.524 322.366 179.812C322.582 180.1 323.134 180.244 324.022 180.244H324.958C326.374 180.244 327.742 179.8 329.062 178.912C330.406 178 331.522 176.788 332.41 175.276C332.458 175.204 332.542 175.192 332.662 175.24C332.806 175.264 332.854 175.3 332.806 175.348C332.59 176.044 332.374 176.872 332.158 177.832C331.942 178.768 331.75 179.644 331.582 180.46C331.51 180.82 331.318 181 331.006 181H316.066ZM330.97 173.008C330.946 173.104 330.862 173.152 330.718 173.152C330.574 173.128 330.514 173.068 330.538 172.972C330.73 171.916 330.562 171.124 330.034 170.596C329.53 170.068 328.762 169.804 327.73 169.804H322.078L322.222 168.796H327.982C329.062 168.796 329.902 168.592 330.502 168.184C331.102 167.752 331.51 167.044 331.726 166.06C331.75 165.94 331.834 165.892 331.978 165.916C332.122 165.916 332.182 165.976 332.158 166.096C332.038 166.864 331.93 167.476 331.834 167.932C331.738 168.364 331.642 168.82 331.546 169.3C331.45 169.9 331.354 170.5 331.258 171.1C331.186 171.676 331.09 172.312 330.97 173.008ZM346.351 181.432C344.215 181.432 342.475 181.084 341.131 180.388C339.787 179.668 338.779 178.732 338.107 177.58C337.435 176.428 337.015 175.168 336.847 173.8C336.703 172.432 336.751 171.076 336.991 169.732C337.327 167.884 337.927 166.24 338.791 164.8C339.679 163.36 340.747 162.148 341.995 161.164C343.243 160.156 344.599 159.4 346.063 158.896C347.527 158.368 349.015 158.104 350.527 158.104C351.511 158.104 352.507 158.212 353.515 158.428C354.547 158.62 355.339 158.86 355.891 159.148C356.059 159.244 356.155 159.34 356.179 159.436C356.203 159.532 356.203 159.712 356.179 159.976L355.603 164.8C355.603 164.872 355.543 164.908 355.423 164.908C355.303 164.908 355.231 164.872 355.207 164.8C354.799 163.024 354.055 161.632 352.975 160.624C351.919 159.592 350.611 159.076 349.051 159.076C347.683 159.076 346.435 159.46 345.307 160.228C344.203 160.972 343.279 162.052 342.535 163.468C341.815 164.86 341.311 166.552 341.023 168.544C340.783 170.176 340.735 171.724 340.879 173.188C341.023 174.652 341.335 175.948 341.815 177.076C342.295 178.204 342.931 179.092 343.723 179.74C344.539 180.388 345.487 180.712 346.567 180.712C347.767 180.712 348.991 180.268 350.239 179.38C351.487 178.492 352.807 177.112 354.199 175.24C354.271 175.144 354.355 175.132 354.451 175.204C354.571 175.252 354.619 175.3 354.595 175.348L353.623 179.488C353.551 179.776 353.479 179.98 353.407 180.1C353.335 180.196 353.191 180.268 352.975 180.316C351.775 180.724 350.599 181.012 349.447 181.18C348.319 181.348 347.287 181.432 346.351 181.432ZM360.423 181C360.375 181 360.351 180.928 360.351 180.784C360.351 180.64 360.375 180.568 360.423 180.568C361.287 180.568 361.947 180.508 362.403 180.388C362.859 180.268 363.195 180.028 363.411 179.668C363.651 179.308 363.831 178.78 363.951 178.084L366.867 161.416C367.035 160.576 367.035 160.024 366.867 159.76C366.723 159.472 366.351 159.328 365.751 159.328H365.319C364.551 159.328 363.759 159.592 362.943 160.12C362.151 160.624 361.431 161.296 360.783 162.136C360.159 162.976 359.691 163.912 359.379 164.944C359.355 165.016 359.271 165.04 359.127 165.016C359.007 164.992 358.959 164.944 358.983 164.872C359.079 164.536 359.199 164.068 359.343 163.468C359.511 162.844 359.679 162.172 359.847 161.452C360.015 160.732 360.171 160.036 360.315 159.364C360.483 158.692 360.603 158.14 360.675 157.708C360.723 157.636 360.807 157.612 360.927 157.636C361.071 157.636 361.131 157.672 361.107 157.744C361.059 158.104 361.215 158.32 361.575 158.392C361.935 158.464 362.247 158.5 362.511 158.5C363.399 158.524 364.431 158.548 365.607 158.572C366.807 158.596 367.971 158.608 369.099 158.608C370.539 158.608 371.751 158.596 372.735 158.572C373.719 158.524 374.619 158.5 375.435 158.5C376.107 158.5 376.623 158.452 376.983 158.356C377.367 158.236 377.643 157.984 377.811 157.6C377.859 157.528 377.943 157.504 378.063 157.528C378.183 157.528 378.231 157.576 378.207 157.672C378.111 158.056 377.979 158.584 377.811 159.256C377.643 159.928 377.475 160.636 377.307 161.38C377.163 162.124 377.031 162.82 376.911 163.468C376.791 164.092 376.707 164.56 376.659 164.872C376.635 164.968 376.551 165.016 376.407 165.016C376.263 164.992 376.203 164.932 376.227 164.836C376.419 163.828 376.371 162.916 376.083 162.1C375.819 161.26 375.387 160.588 374.787 160.084C374.187 159.58 373.455 159.328 372.591 159.328H372.195C371.547 159.328 371.127 159.484 370.935 159.796C370.743 160.084 370.575 160.648 370.431 161.488L367.515 178.084C367.395 178.78 367.371 179.308 367.443 179.668C367.515 180.028 367.767 180.268 368.199 180.388C368.631 180.508 369.291 180.568 370.179 180.568C370.227 180.568 370.251 180.64 370.251 180.784C370.251 180.928 370.227 181 370.179 181C369.507 181 368.763 180.988 367.947 180.964C367.155 180.94 366.267 180.928 365.283 180.928C364.395 180.928 363.531 180.94 362.691 180.964C361.851 180.988 361.095 181 360.423 181ZM377.513 181C377.441 181 377.405 180.928 377.405 180.784C377.405 180.64 377.441 180.568 377.513 180.568C378.161 180.568 378.641 180.508 378.953 180.388C379.289 180.268 379.541 180.028 379.709 179.668C379.877 179.308 380.021 178.78 380.141 178.084L383.093 161.416C383.285 160.384 383.261 159.712 383.021 159.4C382.781 159.088 382.205 158.932 381.293 158.932C381.221 158.932 381.185 158.86 381.185 158.716C381.185 158.572 381.221 158.5 381.293 158.5C381.845 158.5 382.457 158.524 383.129 158.572C383.801 158.596 384.509 158.608 385.253 158.608C386.093 158.608 386.849 158.596 387.521 158.572C388.193 158.524 388.793 158.5 389.321 158.5C389.393 158.5 389.429 158.572 389.429 158.716C389.429 158.86 389.393 158.932 389.321 158.932C388.673 158.932 388.181 159.004 387.845 159.148C387.509 159.292 387.257 159.544 387.089 159.904C386.945 160.264 386.813 160.792 386.693 161.488L383.741 178.084C383.549 179.116 383.561 179.788 383.777 180.1C384.017 180.412 384.605 180.568 385.541 180.568C385.589 180.568 385.613 180.64 385.613 180.784C385.613 180.928 385.589 181 385.541 181C385.013 181 384.413 180.988 383.741 180.964C383.069 180.94 382.325 180.928 381.509 180.928C380.765 180.928 380.045 180.94 379.349 180.964C378.677 180.988 378.065 181 377.513 181ZM399.183 181.432C397.167 181.432 395.499 180.916 394.179 179.884C392.859 178.828 391.935 177.412 391.407 175.636C390.903 173.86 390.843 171.892 391.227 169.732C391.515 168.052 392.043 166.504 392.811 165.088C393.579 163.672 394.527 162.448 395.655 161.416C396.807 160.36 398.079 159.544 399.471 158.968C400.863 158.392 402.327 158.104 403.863 158.104C405.927 158.104 407.631 158.62 408.975 159.652C410.319 160.684 411.255 162.076 411.783 163.828C412.335 165.58 412.407 167.548 411.999 169.732C411.687 171.556 411.111 173.188 410.271 174.628C409.431 176.068 408.423 177.292 407.247 178.3C406.071 179.308 404.787 180.088 403.395 180.64C402.027 181.168 400.623 181.432 399.183 181.432ZM400.731 180.496C402.435 180.496 403.935 179.704 405.231 178.12C406.551 176.512 407.439 174.352 407.895 171.64C408.183 169.984 408.267 168.4 408.147 166.888C408.051 165.376 407.763 164.032 407.283 162.856C406.827 161.656 406.191 160.708 405.375 160.012C404.559 159.316 403.587 158.968 402.459 158.968C400.755 158.968 399.255 159.76 397.959 161.344C396.663 162.928 395.775 165.088 395.295 167.824C395.031 169.432 394.947 170.992 395.043 172.504C395.139 174.016 395.415 175.372 395.871 176.572C396.327 177.772 396.963 178.732 397.779 179.452C398.595 180.148 399.579 180.496 400.731 180.496ZM430.549 181.324L419.677 161.452C419.125 160.468 418.609 159.808 418.129 159.472C417.673 159.112 417.193 158.932 416.689 158.932C416.617 158.932 416.581 158.86 416.581 158.716C416.581 158.572 416.617 158.5 416.689 158.5C417.169 158.5 417.709 158.512 418.309 158.536C418.909 158.56 419.413 158.572 419.821 158.572C420.229 158.572 420.685 158.56 421.189 158.536C421.717 158.512 422.041 158.5 422.161 158.5C422.425 158.5 422.593 158.644 422.665 158.932C422.737 159.196 422.965 159.676 423.349 160.372L431.845 175.852L431.593 181.252C431.593 181.372 431.437 181.456 431.125 181.504C430.813 181.552 430.621 181.492 430.549 181.324ZM412.945 181C412.873 181 412.837 180.928 412.837 180.784C412.837 180.64 412.873 180.568 412.945 180.568C413.857 180.568 414.637 180.244 415.285 179.596C415.957 178.924 416.389 178 416.581 176.824L419.749 159.328L420.721 159.4L417.589 176.824C417.397 178 417.517 178.924 417.949 179.596C418.381 180.244 419.053 180.568 419.965 180.568C420.013 180.568 420.037 180.64 420.037 180.784C420.037 180.928 420.013 181 419.965 181C419.461 181 418.933 180.988 418.381 180.964C417.829 180.94 417.193 180.928 416.473 180.928C415.849 180.928 415.237 180.94 414.637 180.964C414.037 180.988 413.473 181 412.945 181ZM431.593 181.252L430.909 179.056L433.897 162.676C434.113 161.524 434.005 160.612 433.573 159.94C433.165 159.268 432.493 158.932 431.557 158.932C431.485 158.932 431.449 158.86 431.449 158.716C431.449 158.572 431.485 158.5 431.557 158.5C431.989 158.5 432.493 158.524 433.069 158.572C433.669 158.596 434.329 158.608 435.049 158.608C435.673 158.608 436.285 158.596 436.885 158.572C437.485 158.524 438.049 158.5 438.577 158.5C438.625 158.5 438.649 158.572 438.649 158.716C438.649 158.86 438.625 158.932 438.577 158.932C437.689 158.932 436.909 159.268 436.237 159.94C435.565 160.612 435.121 161.524 434.905 162.676L431.593 181.252Z" fill="currentColor"/>
</svg>
